Format;AVI

File Size:1.26gb

Video:ID : 0
Format : MPEG-4 Visual
Format profile : Advanced Simple@L5
Format settings, BVOP : Yes
Format settings, QPel : No
Format settings, GMC : No warppoints
Format settings, Matrix : Default (H.263)
Codec ID : XVID
Codec ID/Hint : XviD
Duration : 5hr 51mn
Bit rate : 977 Kbps
Width : 680 pixels
Height : 364 pixels
Display aspect ratio : 1.868
Frame rate : 23.976 fps
Color space : YUV
Chroma subsampling : 4:2:0
Bit depth : 8 bits
Scan type : Progressive
Bits/(Pixel*Frame) : 0.131
Stream size : 31.6 MiB (2%)
Writing library : XviD 1.2.1 (UTC 2008-12-04)

Audio: ID : 1
Format : AC-3
Format/Info : Audio Coding 3
Codec ID : 2000
Duration : 5hr 51mn
Bit rate mode : Constant
Bit rate : 128 Kbps
Channel(s) : 2 channels
Sampling rate : 48.0 KHz
Stream size : 5.21 MiB (0%)
Alignment : Aligned on interleaves


Duration:5:57

Release Date:2011

Language:English


Consists of all 5 movies

Starts with Exorcist the beginning with cut scenes from the dominion,continues on to exorcist then exorcist 2 and 3 run side by side

Lot and lots of cuts and added scenes from all 5 movies.Yes i know the file size is big and runtime is long but with this edit you really don't need to bother downloading all 5 movies

with a runtime of over 11 hours pay attention to small details like i said a lot has been edited.

Enjoy if you are a fan of the exorcist series as this puts it all together.
 
http://www.grinshare.com/img/AG7ECT.png
 
http://www.grinshare.com/img/VARPBS.png
 
http://www.grinshare.com/img/926BT6.png
 
http://www.grinshare.com/img/660FLH.png
 
http://www.grinshare.com/img/BFG06A.png
 
http://www.grinshare.com/img/K5F48R.png